<svg xmlns="http://www.w3.org/2000/svg" width="31.54mm" height="8.57mm" viewBox="0 0 89.41 24.3">
  <defs>
    <style>
      .cls-1 {
        fill: #2ca1b7;
      }

      .cls-2 {
        fill: #898989;
      }
    </style>
  </defs>
  <path class="cls-1" d="M24.85,10.2C26.15,5.6,23.65,0,16.05,0A16.72,16.72,0,0,0,.55,11.3c-1.6,5.3.4,10,4.3,12s10.3.9,14.2-2.4a.66.66,0,0,0,0-.94.65.65,0,0,0-.7-.16c-4.3,1.6-8,1.2-9.6-.9a5.8,5.8,0,0,1,.1-6.7c1.1-1.6,3.1-3,4.9-2.9a.78.78,0,0,1,.73.83.47.47,0,0,1,0,.17c0,.1-.1.2-.1.3-.8,3,.9,5.3,3.8,5.4a7.35,7.35,0,0,0,6.6-5.3C24.78,10.53,24.81,10.36,24.85,10.2Z"/>
  <path class="cls-2" d="M24.45,23.4a3.65,3.65,0,0,1-3.2-1.4,3.71,3.71,0,0,1-.2-3.7,7.9,7.9,0,0,1,3.1-3.7,7.77,7.77,0,0,1,4.4-1.5,3.46,3.46,0,0,1,3.2,1.5,3.92,3.92,0,0,1,.2,3.7A8.17,8.17,0,0,1,29,22,9.4,9.4,0,0,1,24.45,23.4Zm2.6-6.8a2.47,2.47,0,0,0-2,1.6,1.71,1.71,0,0,0-.1,1.2.8.8,0,0,0,.8.5,2.06,2.06,0,0,0,1.3-.5,2,2,0,0,0,.8-1.2,1.08,1.08,0,0,0,0-1.1A.79.79,0,0,0,27.05,16.6Z"/>
  <path class="cls-2" d="M32.65,23.4a1.44,1.44,0,0,1-1.2-.6,1.4,1.4,0,0,1,0-1.4l4.1-10.6a3.14,3.14,0,0,1,1.2-1.4,3,3,0,0,1,1.7-.6,1.41,1.41,0,0,1,1.2.6,1.63,1.63,0,0,1,0,1.4l-4.1,10.5a2.87,2.87,0,0,1-1.2,1.5A2.69,2.69,0,0,1,32.65,23.4Z"/>
  <path class="cls-2" d="M37.85,23.4a1.44,1.44,0,0,1-1.2-.6,1.4,1.4,0,0,1,0-1.4l4.1-10.6A3.14,3.14,0,0,1,42,9.4a3,3,0,0,1,1.7-.6,1.41,1.41,0,0,1,1.2.6,1.63,1.63,0,0,1,0,1.4l-4.1,10.5a2.87,2.87,0,0,1-1.2,1.5A3,3,0,0,1,37.85,23.4Z"/>
  <path class="cls-2" d="M51.45,19.2h-4.8a1.24,1.24,0,0,0,.7.7,5.06,5.06,0,0,0,1.4.1,3,3,0,0,0,.9-.1,11,11,0,0,1,1.6-.3,1,1,0,0,1,1,1.5,3.55,3.55,0,0,1-2.5,1.8,10.44,10.44,0,0,1-3,.4,4.62,4.62,0,0,1-3.7-1.3,3.59,3.59,0,0,1-.2-3.9A8.28,8.28,0,0,1,46,14.5a7.81,7.81,0,0,1,4.3-1.4,3.52,3.52,0,0,1,3,1.3,2.87,2.87,0,0,1,.5,3.2,2.53,2.53,0,0,1-.9,1.3A2.42,2.42,0,0,1,51.45,19.2Zm-2.6-3a1.26,1.26,0,0,0-.8.4,3.36,3.36,0,0,0-.6.7h2.2a1,1,0,0,0,0-.8C49.55,16.2,49.25,16.2,48.85,16.2Z"/>
  <path class="cls-2" d="M58,23.4a4.15,4.15,0,0,1-3.4-1.4,3.71,3.71,0,0,1-.2-3.7,7.66,7.66,0,0,1,3.1-3.6,8.2,8.2,0,0,1,4.3-1.4,4.74,4.74,0,0,1,2.4.5c.7.4.9,1.1.5,2.1a1.92,1.92,0,0,1-1,1,2.65,2.65,0,0,1-1.4.4,1.7,1.7,0,0,1-.7-.1,4.8,4.8,0,0,0-1.2-.3,2,2,0,0,0-1.3.4,2.49,2.49,0,0,0-.9,1.1.91.91,0,0,0,.1,1,1,1,0,0,0,.9.4,5.77,5.77,0,0,0,1.1-.1,4.85,4.85,0,0,1,1-.1,1.35,1.35,0,0,1,1.2.5,1.6,1.6,0,0,1-.1,1.5,3,3,0,0,1-2.1,1.6C59.65,23.2,58.85,23.4,58,23.4Z"/>
  <path class="cls-2" d="M71,16.6l-1.8,4.7A2.87,2.87,0,0,1,68,22.8a3,3,0,0,1-1.7.6,1.23,1.23,0,0,1-1.2-.6,2,2,0,0,1,0-1.5l1.8-4.7a1.7,1.7,0,0,1-1.2-.5,1.06,1.06,0,0,1-.1-1.2,2.79,2.79,0,0,1,1.1-1.3,3,3,0,0,1,1.6-.4,7.23,7.23,0,0,1,1.1-2,2.76,2.76,0,0,1,2.1-.9c.9,0,1.3.3,1.3.9a4.32,4.32,0,0,1-.4,2c.6,0,1,.1,1.2.4s.3.7.1,1.3a2.51,2.51,0,0,1-1.1,1.2A2.31,2.31,0,0,1,71,16.6Z"/>
  <path class="cls-2" d="M73,23.4a1.23,1.23,0,0,1-1.2-.6,2,2,0,0,1,0-1.5l2.4-6.2a2.91,2.91,0,0,1,1.2-1.5,3,3,0,0,1,1.7-.6,1.3,1.3,0,0,1,1.2,2l-2.4,6.1a2.87,2.87,0,0,1-1.2,1.5A2.12,2.12,0,0,1,73,23.4Zm4.2-10.7a1.37,1.37,0,0,1-1.3-.6,2.21,2.21,0,0,1,0-1.6A2.91,2.91,0,0,1,77.05,9a3.26,3.26,0,0,1,1.8-.6,1.47,1.47,0,0,1,1.3.6,1.33,1.33,0,0,1,0,1.5A2.87,2.87,0,0,1,79,12,2.76,2.76,0,0,1,77.15,12.7Z"/>
  <path class="cls-2" d="M81.55,23.4a3.65,3.65,0,0,1-3.2-1.4,3.71,3.71,0,0,1-.2-3.7,7.9,7.9,0,0,1,3.1-3.7,7.77,7.77,0,0,1,4.4-1.5,3.46,3.46,0,0,1,3.2,1.5,3.92,3.92,0,0,1,.2,3.7,8.17,8.17,0,0,1-3,3.7A9,9,0,0,1,81.55,23.4Zm2.7-6.8a2.47,2.47,0,0,0-2,1.6,1.71,1.71,0,0,0-.1,1.2.8.8,0,0,0,.8.5,2.06,2.06,0,0,0,1.3-.5,2,2,0,0,0,.8-1.2,1.08,1.08,0,0,0,0-1.1A.88.88,0,0,0,84.25,16.6Z"/>
</svg>
