<svg xmlns="http://www.w3.org/2000/svg" width="52.559" height="20.789" viewBox="0 0 52.559 20.789"><g transform="translate(-1.441 -12.145)"><path d="M1.441-8.461a1.4,1.4,0,0,0,.48,1.066l9.117,8.93a1.335,1.335,0,0,0,.973.4A1.383,1.383,0,0,0,13.406.539a1.431,1.431,0,0,0-.422-1l-8.215-8,8.215-8a1.453,1.453,0,0,0,.422-1,1.383,1.383,0,0,0-1.395-1.395,1.335,1.335,0,0,0-.973.4L1.922-9.539A1.437,1.437,0,0,0,1.441-8.461Z" transform="translate(0 31)" fill="#6e6e6e"/><text transform="translate(20 28)" fill="#6e6e6e" font-size="17" font-family="HiraginoSans-W3, Hiragino Sans" letter-spacing="-0.024em"><tspan x="0" y="0">戻る</tspan></text></g></svg>