<svg xmlns="http://www.w3.org/2000/svg" width="89.407" height="24.3" viewBox="0 0 89.407 24.3"><g transform="translate(-0.046)"><path d="M24.9,10.2C26.2,5.6,23.7,0,16.1,0A16.7,16.7,0,0,0,.6,11.3c-1.6,5.3.4,10,4.3,12,3.8,2,10.3.9,14.2-2.4a.668.668,0,0,0-.7-1.1c-4.3,1.6-8,1.2-9.6-.9a5.8,5.8,0,0,1,.1-6.7c1.1-1.6,3.1-3,4.9-2.9a.783.783,0,0,1,.7,1c0,.1-.1.2-.1.3-.8,3,.9,5.3,3.8,5.4a7.348,7.348,0,0,0,6.6-5.3,4.331,4.331,0,0,1,.1-.5Z" fill="#898989"/><path d="M24.5,23.4A3.623,3.623,0,0,1,21.3,22a3.68,3.68,0,0,1-.2-3.7,7.865,7.865,0,0,1,3.1-3.7,7.768,7.768,0,0,1,4.4-1.5,3.456,3.456,0,0,1,3.2,1.5,3.94,3.94,0,0,1,.2,3.7A8.251,8.251,0,0,1,29,22,9.357,9.357,0,0,1,24.5,23.4Zm2.6-6.8a2.461,2.461,0,0,0-2,1.6,1.672,1.672,0,0,0-.1,1.2.792.792,0,0,0,.8.5,2.106,2.106,0,0,0,1.3-.5,1.991,1.991,0,0,0,.8-1.2,1.079,1.079,0,0,0,0-1.1A.792.792,0,0,0,27.1,16.6Z" fill="#898989"/><path d="M32.7,23.4a1.425,1.425,0,0,1-1.2-.6,1.4,1.4,0,0,1,0-1.4l4.1-10.6a3.126,3.126,0,0,1,1.2-1.4,2.934,2.934,0,0,1,1.7-.6,1.425,1.425,0,0,1,1.2.6,1.7,1.7,0,0,1,0,1.4L35.6,21.3a2.891,2.891,0,0,1-1.2,1.5A2.716,2.716,0,0,1,32.7,23.4Z" fill="#898989"/><path d="M37.9,23.4a1.425,1.425,0,0,1-1.2-.6,1.4,1.4,0,0,1,0-1.4l4.1-10.6A3.126,3.126,0,0,1,42,9.4a2.934,2.934,0,0,1,1.7-.6,1.425,1.425,0,0,1,1.2.6,1.7,1.7,0,0,1,0,1.4L40.8,21.3a2.891,2.891,0,0,1-1.2,1.5A2.934,2.934,0,0,1,37.9,23.4Z" fill="#898989"/><path d="M51.5,19.2H46.7a1.2,1.2,0,0,0,.7.7,5.313,5.313,0,0,0,1.4.1,3.085,3.085,0,0,0,.9-.1,11.63,11.63,0,0,1,1.6-.3,1.053,1.053,0,0,1,1,.4,1.067,1.067,0,0,1,0,1.1,3.588,3.588,0,0,1-2.5,1.8,10.323,10.323,0,0,1-3,.4A4.638,4.638,0,0,1,43.1,22a3.584,3.584,0,0,1-.2-3.9A8.14,8.14,0,0,1,46,14.5a7.847,7.847,0,0,1,4.3-1.4,3.542,3.542,0,0,1,3,1.3,2.876,2.876,0,0,1,.5,3.2,2.54,2.54,0,0,1-.9,1.3A2.42,2.42,0,0,1,51.5,19.2Zm-2.6-3a1.2,1.2,0,0,0-.8.4,3.191,3.191,0,0,0-.6.7h2.2a1.069,1.069,0,0,0,0-.8C49.6,16.2,49.3,16.2,48.9,16.2Z" fill="#898989"/><path d="M58,23.4A4.154,4.154,0,0,1,54.6,22a3.68,3.68,0,0,1-.2-3.7,7.643,7.643,0,0,1,3.1-3.6,8.11,8.11,0,0,1,4.3-1.4,4.772,4.772,0,0,1,2.4.5c.7.4.9,1.1.5,2.1a1.949,1.949,0,0,1-1,1,2.735,2.735,0,0,1-1.4.4,1.7,1.7,0,0,1-.7-.1,4.909,4.909,0,0,0-1.2-.3,2.01,2.01,0,0,0-1.3.4,2.445,2.445,0,0,0-.9,1.1.9.9,0,0,0,.1,1,.975.975,0,0,0,.9.4,5.384,5.384,0,0,0,1.1-.1,4.592,4.592,0,0,1,1-.1,1.364,1.364,0,0,1,1.2.5,1.624,1.624,0,0,1-.1,1.5,3.011,3.011,0,0,1-2.1,1.6C59.7,23.2,58.9,23.4,58,23.4Z" fill="#898989"/><path d="M71,16.6l-1.8,4.7A2.891,2.891,0,0,1,68,22.8a2.934,2.934,0,0,1-1.7.6,1.209,1.209,0,0,1-1.2-.6,1.933,1.933,0,0,1,0-1.5l1.8-4.7a1.656,1.656,0,0,1-1.2-.5,1.028,1.028,0,0,1-.1-1.2,2.765,2.765,0,0,1,1.1-1.3,2.934,2.934,0,0,1,1.6-.4,7.105,7.105,0,0,1,1.1-2,2.723,2.723,0,0,1,2.1-.9c.9,0,1.3.3,1.3.9a4.349,4.349,0,0,1-.4,2c.6,0,1,.1,1.2.4.3.3.3.7.1,1.3a2.545,2.545,0,0,1-1.1,1.2A2.353,2.353,0,0,1,71,16.6Z" fill="#898989"/><path d="M73,23.4a1.209,1.209,0,0,1-1.2-.6,1.933,1.933,0,0,1,0-1.5l2.4-6.2a2.891,2.891,0,0,1,1.2-1.5,2.934,2.934,0,0,1,1.7-.6,1.425,1.425,0,0,1,1.2.6,1.4,1.4,0,0,1,0,1.4l-2.4,6.1a2.891,2.891,0,0,1-1.2,1.5A2.112,2.112,0,0,1,73,23.4Zm4.2-10.7a1.375,1.375,0,0,1-1.3-.6,2.169,2.169,0,0,1,0-1.6A2.891,2.891,0,0,1,77.1,9a3.226,3.226,0,0,1,1.8-.6,1.486,1.486,0,0,1,1.3.6,1.352,1.352,0,0,1,0,1.5A2.891,2.891,0,0,1,79,12,2.743,2.743,0,0,1,77.2,12.7Z" fill="#898989"/><path d="M81.6,23.4A3.623,3.623,0,0,1,78.4,22a3.68,3.68,0,0,1-.2-3.7,7.865,7.865,0,0,1,3.1-3.7,7.768,7.768,0,0,1,4.4-1.5,3.456,3.456,0,0,1,3.2,1.5,3.94,3.94,0,0,1,.2,3.7,8.251,8.251,0,0,1-3,3.7A9.05,9.05,0,0,1,81.6,23.4Zm2.7-6.8a2.461,2.461,0,0,0-2,1.6,1.672,1.672,0,0,0-.1,1.2.792.792,0,0,0,.8.5,2.106,2.106,0,0,0,1.3-.5,1.991,1.991,0,0,0,.8-1.2,1.079,1.079,0,0,0,0-1.1A.891.891,0,0,0,84.3,16.6Z" fill="#898989"/></g></svg>