<svg xmlns="http://www.w3.org/2000/svg" width="20.808" height="23.923" viewBox="0 0 20.808 23.923"><path d="M-4.925,3.255H4.925A2.506,2.506,0,0,0,7.568.72L8.309-14.9H9.6a.821.821,0,0,0,.806-.816.812.812,0,0,0-.806-.806H4.689v-1.644a2.388,2.388,0,0,0-2.664-2.5H-2.046a2.388,2.388,0,0,0-2.664,2.5v1.644H-9.6a.819.819,0,0,0-.806.806A.821.821,0,0,0-9.6-14.9h1.289L-7.568.73A2.492,2.492,0,0,0-4.925,3.255ZM-3-18.058a.974.974,0,0,1,1.063-1.01H1.917a.974.974,0,0,1,1.063,1.01v1.536H-3ZM-4.775,1.633A1.1,1.1,0,0,1-5.881.537L-6.633-14.9H6.58L5.881.537a1.1,1.1,0,0,1-1.128,1.1ZM-3.185-.2a.607.607,0,0,0,.666-.634l-.322-11.494a.63.63,0,0,0-.677-.623.607.607,0,0,0-.666.634L-3.851-.838A.618.618,0,0,0-3.185-.2Zm3.19,0A.63.63,0,0,0,.693-.838V-12.321a.63.63,0,0,0-.687-.634.639.639,0,0,0-.7.634V-.838A.639.639,0,0,0,.005-.2Zm3.18,0a.624.624,0,0,0,.666-.634l.333-11.483a.616.616,0,0,0-.677-.634.629.629,0,0,0-.666.634L2.519-.838A.607.607,0,0,0,3.185-.2Z" transform="translate(10.404 20.668)" fill="#797979"/></svg>