<svg xmlns="http://www.w3.org/2000/svg" width="15.63" height="15.78" viewBox="0 0 15.63 15.78"><path d="M-1.432-1.112a6.363,6.363,0,0,0,3.71-1.2L6.213,1.627a.946.946,0,0,0,.681.274A.91.91,0,0,0,7.815.955.9.9,0,0,0,7.55.291L3.64-3.627A6.358,6.358,0,0,0,4.951-7.5a6.4,6.4,0,0,0-6.383-6.383A6.4,6.4,0,0,0-7.815-7.5,6.4,6.4,0,0,0-1.432-1.112Zm0-1.378A5.038,5.038,0,0,1-6.437-7.5,5.038,5.038,0,0,1-1.432-12.5,5.038,5.038,0,0,1,3.573-7.5,5.038,5.038,0,0,1-1.432-2.49Z" transform="translate(7.815 13.879)" fill="rgba(60,60,67,0.6)"/></svg>